# xmcd
#
# Track frame offsets: 
#        150
#        16750
#        32561
#        46433
#        68443
#        83086
#        93047
#        111257
#        124717
#        146213
#        162253
#        175073
#        191629
#        210076
#        227779
#        243536
#
# Disc length: 3391 seconds
#
# Revision: 0
# Processed by: cddbd v1.5.2PL0 Copyright (c) Steve Scherf et al.
# Submitted via: ExactAudioCopy v0.95a5
#
DISCID=c70d3d10
DTITLE=John Campbelljohn - Hook Slide and Sinker
DYEAR=1999
DGENRE=Blues
TTITLE0=The World Is Crazy
TTITLE1=Johnny Rock 'N' Roll
TTITLE2=I Wanna Get Up
TTITLE3=The Court Of Love
TTITLE4=Martha Mae
TTITLE5=Wife and Family
TTITLE6=Phone Booth
TTITLE7=Sunny Sky Slide
TTITLE8=Slow Down
TTITLE9=Heart Like A Stone
TTITLE10=Ready For A Riot
TTITLE11=Non-Conformist Blues
TTITLE12=Baby Bloomer Blues
TTITLE13=Don't You Burn Your Bridges
TTITLE14=Don't Let The Drinkin' Do The Thinkin'
TTITLE15=Pretty Paula Doy
EXTD=
EXTT0=
EXTT1=
EXTT2=
EXTT3=
EXTT4=
EXTT5=
EXTT6=
EXTT7=
EXTT8=
EXTT9=
EXTT10=
EXTT11=
EXTT12=
EXTT13=
EXTT14=
EXTT15=
PLAYORDER=
